P1
84 7
1 0 0 0 1 00 0 1 0 0 00 1 1 1 1 00 1 1 1 0 00 1 1 1 0 00 0 0 0 0 00 1 1 1 0 00 0 1 0 0 01 0 0 0 1 00 1 1 1 0 01 1 1 1 1 00 0 0 0 0 01 1 1 1 1 01 0 0 0 1 0
1 1 0 1 1 00 1 0 1 0 01 0 0 0 0 00 0 1 0 0 01 0 0 0 1 00 0 0 0 0 01 0 0 0 1 00 1 0 1 0 01 0 0 0 1 01 0 0 0 1 01 0 0 0 0 00 0 0 0 0 01 0 0 0 0 01 0 0 0 1 0
1 0 1 0 1 01 0 0 0 1 01 0 0 0 0 00 0 1 0 0 01 0 0 0 0 00 0 0 0 0 01 0 0 0 0 01 0 0 0 1 01 0 0 0 1 01 0 0 0 0 01 0 0 0 0 00 0 0 0 0 01 0 0 0 0 01 0 0 0 1 0
1 0 0 0 1 01 1 1 1 1 01 0 0 1 1 00 0 1 0 0 01 0 0 0 0 00 0 0 0 0 00 1 1 1 0 01 1 1 1 1 01 0 0 0 1 01 0 0 0 0 01 1 1 1 0 00 0 0 0 0 01 1 1 1 0 01 1 1 1 1 0
1 0 0 0 1 01 0 0 0 1 01 0 0 0 1 00 0 1 0 0 01 0 0 0 0 00 0 0 0 0 00 0 0 0 1 01 0 0 0 1 01 0 0 0 1 01 0 0 0 0 01 0 0 0 0 00 0 0 0 0 01 0 0 0 0 01 0 0 0 1 0
1 0 0 0 1 01 0 0 0 1 01 0 0 0 1 00 0 1 0 0 01 0 0 0 1 00 0 0 0 0 01 0 0 0 1 01 0 0 0 1 01 0 0 0 1 01 0 0 0 1 01 0 0 0 0 00 0 0 0 0 01 0 0 0 0 01 0 0 0 1 0
1 0 0 0 1 01 0 0 0 1 00 1 1 1 1 00 1 1 1 0 00 1 1 1 0 00 0 0 0 0 00 1 1 1 0 01 0 0 0 1 00 1 1 1 0 00 1 1 1 0 01 1 1 1 1 00 0 0 0 0 01 1 1 1 1 01 0 0 0 1 0
